PathFileType	4	(X/Y/Z)	49_1_8_p0_0-203.trc
DataRate	CameraRate	NumFrames	NumMarkers	Units	OrigDataRate	OrigDataStartFrame	OrigNumFrames
44.0	44.0	6	27	m	44.0	178	204
Frame#	Time	RHip			RKnee			RAnkle			RBigToe			RSmallToe			RHeel			LHip			LKnee			LAnkle			LBigToe			LSmallToe			LHeel			Neck			Head			Nose			RShoulder			RElbow			RWrist			RThumb			RIndex			RPinky			LShoulder			LElbow			LWrist			LThumb			LIndex			LPinky			
		X1	Y1	Z1	X2	Y2	Z2	X3	Y3	Z3	X4	Y4	Z4	X5	Y5	Z5	X6	Y6	Z6	X7	Y7	Z7	X8	Y8	Z8	X9	Y9	Z9	X10	Y10	Z10	X11	Y11	Z11	X12	Y12	Z12	X13	Y13	Z13	X14	Y14	Z14	X15	Y15	Z15	X16	Y16	Z16	X17	Y17	Z17	X18	Y18	Z18	X19	Y19	Z19	X20	Y20	Z20	X21	Y21	Z21	X22	Y22	Z22	X23	Y23	Z23	X24	Y24	Z24	X25	Y25	Z25	X26	Y26	Z26	X27	Y27	Z27	
178	4.045454545454546	0.37769751789675315	0.609696462904817	0.7987625140388748	0.34752403823368117	0.8021221183145941	1.2089037876192015	0.3281648593931734	1.0284934964317056	1.5896403746866314	0.3133252792835501	0.8626092621097148	1.6667638190005774	0.3746921327195683	0.8625161748722572	1.664868946620477	0.31115596381777344	1.1338365915585533	1.6274702335134419	0.14584738883155257	0.6647288394488391	0.7890737977136786	0.14025324359818286	0.8516872858567268	1.1996371557342553	0.15121322389531555	1.0265528691602102	1.5862259832473236	0.1534054977504272	0.8355587036838072	1.6479695372481347	0.10203326920233015	0.8973398733805136	1.655031539847664	0.17517173066907465	1.09263160810485	1.6318648659189714	0.27452028345691004	0.40357658274228564	0.19066374574185546	0.27520948919167487	0.2926446069513995	-0.04296994716267695	0.2633639832469912	0.22800853287125838	0.12504030605774807	0.4229225840698729	0.44521062383820104	0.2803456081829304	0.4901578446773438	0.540013976504446	0.5384116929595171	0.49102978173603107	0.5882205552441793	0.8098618159126156	0.42379338019808993	0.5950795490068894	0.925611300180945	0.44678262857968315	0.5561264002964149	0.9474511247830513	0.48789757645132814	0.6069526173809507	0.9487811977512255	0.10465677549341672	0.49014827487009077	0.2657196641997561	0.05429469120997058	0.6049455635934661	0.5066919354090743	0.045304070017851104	0.6088965706289192	0.7806156323107153	0.08339180002179762	0.6258767438418243	0.8877830181140373	0.058348915018185905	0.6225925861297613	0.9000596137847425	0.024369026535539413	0.693060511895622	0.8950035678650317
179	4.068181818181818	0.37767955659111446	0.6093896261358359	0.7985698177792199	0.35107295417162676	0.8126215999661822	1.2058135740663596	0.3281979307489889	1.0285554685140554	1.5896532419086438	0.31326227271066515	0.8627841134337767	1.6669169660190406	0.3745215438753417	0.8629384048190135	1.665092731780933	0.31119753262826766	1.13386479855077	1.6273750232255588	0.1502352818956324	0.650293629587735	0.7897301408506326	0.14107667625751308	0.850485236814213	1.1958969558903716	0.15220472267186022	1.0250229896303655	1.5819988868843446	0.15332079642162255	0.8355614537795989	1.648069864980206	0.10284577471893258	0.8959570792537696	1.651856405656036	0.17511469077547462	1.0929449906817297	1.6321004145905498	0.2712619973281692	0.41540669933002694	0.18746124094913097	0.2753757348971289	0.29378547930709964	-0.03963312857296969	0.26661363567665747	0.23810725530404409	0.12182778861078779	0.4228424296639266	0.44572462821357417	0.28022682851665137	0.49036018272981186	0.5398353190080634	0.5382317681911886	0.48718681098835304	0.5788424135698591	0.8136318723056357	0.42705433208235516	0.5790229199729665	0.9291882703289163	0.44559266417008453	0.5412280575296727	0.9478252856070137	0.48327203560766263	0.594108346071352	0.9490822049467351	0.10494480169998559	0.48961131937571273	0.26220510157842847	0.054459729361703055	0.6041654209363511	0.5068662276546366	0.04603809163820558	0.6115708448802394	0.7881942426787861	0.08386157187992772	0.6249065052176729	0.8876862455839762	0.058708001268155605	0.6220923465830792	0.9001212646778792	0.026379289542865603	0.6636933529440204	0.8956216416278027
180	4.090909090909091	0.37827005507252026	0.6121309369479584	0.802152239655747	0.3512393036125975	0.813232352580336	1.2056530475319152	0.3282637804736114	1.0281018230516077	1.5896993026248474	0.3131763286660153	0.8627632857710658	1.6669695276834775	0.3743735001358051	0.8635400143363139	1.6654405521067606	0.31119856288103637	1.1334706804520618	1.6278558665406475	0.14591744067972162	0.664587135498634	0.7891600216602477	0.13669994808740707	0.8668305779303785	1.1969960268521482	0.15108242632137991	1.0268994005936842	1.586376059139285	0.15643929517401337	0.8514280545735795	1.6513944994594056	0.10281658734751216	0.8961481983629516	1.6518332191580827	0.17292384873748656	1.0801677423318485	1.6324076764691118	0.2712498897661657	0.41568275426185997	0.18749731015812054	0.27925598682385877	0.2933354387748311	-0.0431249580566548	0.26670583156133226	0.2383436269901319	0.12172923700752582	0.42300743314303335	0.44631978594933813	0.28022502751176365	0.49058368809977604	0.5393985673923247	0.534867112169892	0.4825095287920653	0.5662122515780996	0.8138630573984174	0.4288834720997999	0.5378540636011094	0.9296919687752448	0.4496790940780305	0.5409161845865854	0.9479357974858044	0.4740250168361601	0.5698915457690075	0.9484495614335258	0.10498565561936372	0.48969556168281253	0.262152055750229	0.05474275873201381	0.6043382162447725	0.51042499215756	0.04604413109215365	0.6114398065864493	0.7882539084305704	0.08412982518930204	0.6247078387984235	0.887763559949858	0.05932398327205017	0.6241275386626016	0.9038947469262822	0.02926064799568525	0.6617827739330716	0.8927169762334245
181	4.113636363636363	0.37831502515812715	0.6117320467434572	0.8022817224270972	0.351178977376658	0.813223843661364	1.2056719540437548	0.324935268648229	1.0157450309351501	1.5913722233950538	0.313283508623108	0.862862487759449	1.6669754746339918	0.37457220476453634	0.8637108208255752	1.6653753070498194	0.3111571602508794	1.1332520892801903	1.628015915560723	0.14686031206087571	0.6366071347361725	0.7905897779855813	0.13672860067599016	0.8667944627959505	1.1968988750704983	0.15218373967922622	1.0249297076197577	1.58184846865024	0.15329051006634892	0.8361020634563409	1.6479929098009976	0.10276996243558767	0.896057875019629	1.6517231049455754	0.17655657323940527	1.094383858542241	1.6346282279557403	0.2712731405302302	0.4157523306498743	0.18749322759592213	0.27537198849592426	0.2940209109985905	-0.039637812529073134	0.2666561848421035	0.23842826435925438	0.12177380946650644	0.4277354939886586	0.4491882315896205	0.2829287628446284	0.4862439162518954	0.530699842244813	0.543563908093043	0.4801266201490231	0.5397959199917207	0.8152345263803821	0.41633767560786883	0.5396842806065009	0.9334498822070222	0.4492948753099307	0.540863909793182	0.9483125159184178	0.47351688299538375	0.5688073131888738	0.9482514425746293	0.10477578930738453	0.4904244186263319	0.26565560384360415	0.050480415951890754	0.6029394475017729	0.5105889644819038	0.05069552061072891	0.5977728097127302	0.789018041233344	0.08834390527973854	0.6248102374064425	0.8876322900373965	0.06363835306389783	0.6108327055056912	0.904125262347702	0.04215430387422807	0.6349209709368311	0.8958946599412371
182	4.136363636363637	0.3782539470952171	0.6115049891122563	0.8022055070578105	0.35093614729846784	0.8129694282895508	1.20574653405825	0.33189181646990773	1.0090105302948784	1.5861027876017773	0.3131950650019221	0.8628097105765016	1.667149245778098	0.374087498095109	0.8639393246165834	1.661580330465266	0.31114058880632395	1.1331590751690253	1.6280936520526765	0.14688916670633112	0.6363713933515482	0.79047780416824	0.13681214205618858	0.8667577299959016	1.1969491438326807	0.15215509636946117	1.0249889138247799	1.5819561974366576	0.1564482856216939	0.8515376782437796	1.6512871571504868	0.10286074506858459	0.8958468808277471	1.6516601830331705	0.17273961249758552	1.0784172691912461	1.6317895359568284	0.2712655760883873	0.41581089945962946	0.18745294978011118	0.27517989444719365	0.29320010802106183	-0.042927809618313655	0.2635994726216298	0.24976076114697873	0.11836070832168687	0.4235622141818283	0.4484853389001668	0.28313789705909337	0.48634260400375623	0.5309841213868258	0.5471208013919138	0.47111670341169387	0.5167438696269999	0.8164572850681122	0.4111616485521531	0.5271019512872632	0.933768876530493	0.43653217767297664	0.5274281070831052	0.9486740392247127	0.47591400968450925	0.5542844576979077	0.9484155138093043	0.10479492782686516	0.4904661083592757	0.26564141973352196	0.04572364475723853	0.5978284806219145	0.5035503618915003	0.05079588579237607	0.5976071604009978	0.7890441685588049	0.09401445432370967	0.6107463422603602	0.8875317030078193	0.06843496245710423	0.6122714934778286	0.9039283139795595	0.046604667404320205	0.6211550738428858	0.8961623486385852
183	4.159090909090909	0.3785604792311805	0.6005646445323888	0.8028052258711507	0.3530606936317488	0.8141190815037673	1.2001849026765354	0.32829886782267625	0.9968531614015841	1.5833135507961593	0.31314814774557653	0.8629096028248516	1.6668890792162236	0.3742544627513952	0.8638688853977479	1.6612346641494447	0.3112161917006796	1.133225980215209	1.6280586549426064	0.1586970371534914	0.6357628945777023	0.7867078007732766	0.13695220208038733	0.8670408604444532	1.1968286756065412	0.1531512987371528	1.0289079294514205	1.5871192672989205	0.15714042419347754	0.8502256366922658	1.64318307612741	0.10365697193276312	0.8948305509330392	1.6484431691961319	0.1729248281057821	1.0790659327484795	1.6320672411673605	0.2712005753438935	0.41622778332093974	0.1872867913004214	0.27208643691521056	0.3045421664451457	-0.04690831319480425	0.2562005880458647	0.26060629913848493	0.11501044142056234	0.42759211609900427	0.4494372894841443	0.28293182878626966	0.4885352968591321	0.5167482476089406	0.5494646875638379	0.45582012892032014	0.49032244382426343	0.8221637761566599	0.3813842478671065	0.4904020402088021	0.9375162815894529	0.3916873746359344	0.45467443937454843	0.9528835718877293	0.4580761827645814	0.5412787693309714	0.947512224275313	0.11228207897105559	0.5036242192667763	0.2587848513734558	0.05096779970423342	0.5688736991224113	0.5110941735266953	0.0592588637691208	0.5809111446376468	0.7861319540732838	0.12467291984377239	0.5535833101263672	0.8878180398067677	0.10991941848481376	0.5446202426607575	0.9002922058444709	0.048437321710812165	0.5937482739286952	0.900437832283088
